<mxfile host="65bd71144e">
    <diagram id="PMbeAzdY48jUfhH1mNCi" name="Architectural Design">
        <mxGraphModel dx="-170" dy="355" grid="1" gridSize="10" guides="1" tooltips="1" connect="1" arrows="1" fold="1" page="1" pageScale="1" pageWidth="827" pageHeight="1169" math="0" shadow="0">
            <root>
                <mxCell id="0"/>
                <mxCell id="1" parent="0"/>
                <mxCell id="75" value="Request update Employees &amp;amp; Vehicles models" style="text;html=1;strokeColor=none;fillColor=none;align=center;verticalAlign=middle;whiteSpace=wrap;rounded=0;" parent="1" vertex="1">
                    <mxGeometry x="1060" y="235" width="60" height="80" as="geometry"/>
                </mxCell>
                <mxCell id="194" value="«component»&lt;br&gt;&lt;b&gt;Model&lt;br&gt;&lt;br&gt;&lt;/b&gt;" style="html=1;dropTarget=0;verticalAlign=top;" parent="1" vertex="1">
                    <mxGeometry x="1360" y="40" width="180" height="400" as="geometry"/>
                </mxCell>
                <mxCell id="195" value="" style="shape=module;jettyWidth=8;jettyHeight=4;" parent="194" vertex="1">
                    <mxGeometry x="1" width="20" height="20" relative="1" as="geometry">
                        <mxPoint x="-27" y="7" as="offset"/>
                    </mxGeometry>
                </mxCell>
                <mxCell id="196" value="«component»&lt;br&gt;&lt;b&gt;Controller&lt;/b&gt;" style="html=1;dropTarget=0;verticalAlign=top;" parent="1" vertex="1">
                    <mxGeometry x="1120" y="40" width="180" height="400" as="geometry"/>
                </mxCell>
                <mxCell id="197" value="" style="shape=module;jettyWidth=8;jettyHeight=4;" parent="196" vertex="1">
                    <mxGeometry x="1" width="20" height="20" relative="1" as="geometry">
                        <mxPoint x="-27" y="7" as="offset"/>
                    </mxGeometry>
                </mxCell>
                <mxCell id="198" value="«component»&lt;br&gt;&lt;b&gt;View&lt;/b&gt;" style="html=1;dropTarget=0;verticalAlign=top;" parent="1" vertex="1">
                    <mxGeometry x="880" y="40" width="180" height="400" as="geometry"/>
                </mxCell>
                <mxCell id="199" value="" style="shape=module;jettyWidth=8;jettyHeight=4;" parent="198" vertex="1">
                    <mxGeometry x="1" width="20" height="20" relative="1" as="geometry">
                        <mxPoint x="-27" y="7" as="offset"/>
                    </mxGeometry>
                </mxCell>
                <mxCell id="200" value="Task Screen" style="shape=module;align=left;spacingLeft=20;align=center;verticalAlign=top;" parent="1" vertex="1">
                    <mxGeometry x="920" y="140" width="100" height="50" as="geometry"/>
                </mxCell>
                <mxCell id="201" value="Task Controller " style="shape=module;align=left;spacingLeft=20;align=center;verticalAlign=top;" parent="1" vertex="1">
                    <mxGeometry x="1150" y="140" width="100" height="50" as="geometry"/>
                </mxCell>
                <mxCell id="202" value="" style="rounded=0;orthogonalLoop=1;jettySize=auto;html=1;endArrow=none;endFill=0;sketch=0;sourcePerimeterSpacing=0;targetPerimeterSpacing=0;exitX=1;exitY=0.5;exitDx=0;exitDy=0;" parent="1" source="200" target="204" edge="1">
                    <mxGeometry relative="1" as="geometry">
                        <mxPoint x="1071" y="165" as="sourcePoint"/>
                    </mxGeometry>
                </mxCell>
                <mxCell id="203" value="" style="rounded=0;orthogonalLoop=1;jettySize=auto;html=1;endArrow=halfCircle;endFill=0;entryX=0.5;entryY=0.5;endSize=6;strokeWidth=1;sketch=0;exitX=0.1;exitY=0.5;exitDx=0;exitDy=0;exitPerimeter=0;" parent="1" source="201" target="204" edge="1">
                    <mxGeometry relative="1" as="geometry">
                        <mxPoint x="1111" y="165" as="sourcePoint"/>
                    </mxGeometry>
                </mxCell>
                <mxCell id="204" value="" style="ellipse;whiteSpace=wrap;html=1;align=center;aspect=fixed;resizable=0;points=[];outlineConnect=0;sketch=0;" parent="1" vertex="1">
                    <mxGeometry x="1080" y="160" width="10" height="10" as="geometry"/>
                </mxCell>
                <mxCell id="205" value="Task&#10;Database" style="shape=module;align=left;spacingLeft=20;align=center;verticalAlign=top;" parent="1" vertex="1">
                    <mxGeometry x="1400" y="140" width="100" height="50" as="geometry"/>
                </mxCell>
                <mxCell id="206" value="" style="rounded=0;orthogonalLoop=1;jettySize=auto;html=1;endArrow=none;endFill=0;sketch=0;sourcePerimeterSpacing=0;targetPerimeterSpacing=0;exitX=1;exitY=0.5;exitDx=0;exitDy=0;" parent="1" source="201" target="208" edge="1">
                    <mxGeometry relative="1" as="geometry">
                        <mxPoint x="1250" y="165" as="sourcePoint"/>
                    </mxGeometry>
                </mxCell>
                <mxCell id="207" value="" style="rounded=0;orthogonalLoop=1;jettySize=auto;html=1;endArrow=halfCircle;endFill=0;entryX=0.5;entryY=0.5;endSize=6;strokeWidth=1;sketch=0;exitX=0.1;exitY=0.5;exitDx=0;exitDy=0;exitPerimeter=0;" parent="1" source="205" target="208" edge="1">
                    <mxGeometry relative="1" as="geometry">
                        <mxPoint x="1311" y="165" as="sourcePoint"/>
                    </mxGeometry>
                </mxCell>
                <mxCell id="208" value="" style="ellipse;whiteSpace=wrap;html=1;align=center;aspect=fixed;resizable=0;points=[];outlineConnect=0;sketch=0;" parent="1" vertex="1">
                    <mxGeometry x="1320" y="160" width="10" height="10" as="geometry"/>
                </mxCell>
                <mxCell id="209" value="Back Officier&#10;Screen" style="shape=module;align=left;spacingLeft=20;align=center;verticalAlign=top;" parent="1" vertex="1">
                    <mxGeometry x="920" y="290" width="100" height="50" as="geometry"/>
                </mxCell>
                <mxCell id="210" value="Back Officier&#10;Controller" style="shape=module;align=left;spacingLeft=20;align=center;verticalAlign=top;" parent="1" vertex="1">
                    <mxGeometry x="1150" y="290" width="100" height="50" as="geometry"/>
                </mxCell>
                <mxCell id="211" value="" style="rounded=0;orthogonalLoop=1;jettySize=auto;html=1;endArrow=none;endFill=0;sketch=0;sourcePerimeterSpacing=0;targetPerimeterSpacing=0;exitX=1;exitY=0.5;exitDx=0;exitDy=0;" parent="1" source="209" target="213" edge="1">
                    <mxGeometry relative="1" as="geometry">
                        <mxPoint x="1071" y="315" as="sourcePoint"/>
                    </mxGeometry>
                </mxCell>
                <mxCell id="212" value="" style="rounded=0;orthogonalLoop=1;jettySize=auto;html=1;endArrow=halfCircle;endFill=0;entryX=0.5;entryY=0.5;endSize=6;strokeWidth=1;sketch=0;exitX=0.1;exitY=0.5;exitDx=0;exitDy=0;exitPerimeter=0;" parent="1" source="210" target="213" edge="1">
                    <mxGeometry relative="1" as="geometry">
                        <mxPoint x="1111" y="315" as="sourcePoint"/>
                    </mxGeometry>
                </mxCell>
                <mxCell id="213" value="" style="ellipse;whiteSpace=wrap;html=1;align=center;aspect=fixed;resizable=0;points=[];outlineConnect=0;sketch=0;" parent="1" vertex="1">
                    <mxGeometry x="1080" y="310" width="10" height="10" as="geometry"/>
                </mxCell>
                <mxCell id="214" value="Employee&#10;Database" style="shape=module;align=left;spacingLeft=20;align=center;verticalAlign=top;" parent="1" vertex="1">
                    <mxGeometry x="1400" y="250" width="100" height="50" as="geometry"/>
                </mxCell>
                <mxCell id="215" value="Vehicle &#10;Database" style="shape=module;align=left;spacingLeft=20;align=center;verticalAlign=top;" parent="1" vertex="1">
                    <mxGeometry x="1400" y="330" width="100" height="50" as="geometry"/>
                </mxCell>
                <mxCell id="216" value="" style="shape=providedRequiredInterface;html=1;verticalLabelPosition=bottom;sketch=0;" parent="1" vertex="1">
                    <mxGeometry x="1320" y="305" width="20" height="20" as="geometry"/>
                </mxCell>
                <mxCell id="217" value="" style="endArrow=none;html=1;exitX=1;exitY=0.5;exitDx=0;exitDy=0;entryX=0;entryY=0.5;entryDx=0;entryDy=0;entryPerimeter=0;" parent="1" source="210" target="216" edge="1">
                    <mxGeometry width="50" height="50" relative="1" as="geometry">
                        <mxPoint x="1260" y="330" as="sourcePoint"/>
                        <mxPoint x="1310" y="280" as="targetPoint"/>
                    </mxGeometry>
                </mxCell>
                <mxCell id="218" value="" style="endArrow=none;html=1;entryX=1;entryY=0.5;entryDx=0;entryDy=0;entryPerimeter=0;exitX=0.098;exitY=0.503;exitDx=0;exitDy=0;exitPerimeter=0;" parent="1" source="214" target="216" edge="1">
                    <mxGeometry width="50" height="50" relative="1" as="geometry">
                        <mxPoint x="1330" y="315" as="sourcePoint"/>
                        <mxPoint x="1330" y="270" as="targetPoint"/>
                    </mxGeometry>
                </mxCell>
                <mxCell id="219" value="" style="endArrow=none;html=1;exitX=1;exitY=0.5;exitDx=0;exitDy=0;exitPerimeter=0;entryX=0.098;entryY=0.499;entryDx=0;entryDy=0;entryPerimeter=0;" parent="1" source="216" target="215" edge="1">
                    <mxGeometry width="50" height="50" relative="1" as="geometry">
                        <mxPoint x="1310" y="320" as="sourcePoint"/>
                        <mxPoint x="1360" y="270" as="targetPoint"/>
                    </mxGeometry>
                </mxCell>
                <mxCell id="220" value="" style="shape=providedRequiredInterface;html=1;verticalLabelPosition=bottom;sketch=0;flipV=1;flipH=1;" parent="1" vertex="1">
                    <mxGeometry x="1200" y="90" width="20" height="20" as="geometry"/>
                </mxCell>
                <mxCell id="221" value="" style="endArrow=none;html=1;exitX=0.5;exitY=0;exitDx=0;exitDy=0;entryX=1;entryY=0.5;entryDx=0;entryDy=0;entryPerimeter=0;" parent="1" source="200" target="220" edge="1">
                    <mxGeometry width="50" height="50" relative="1" as="geometry">
                        <mxPoint x="1100" y="100" as="sourcePoint"/>
                        <mxPoint x="1150" y="50" as="targetPoint"/>
                        <Array as="points">
                            <mxPoint x="970" y="100"/>
                        </Array>
                    </mxGeometry>
                </mxCell>
                <mxCell id="222" value="" style="endArrow=none;html=1;entryX=0.5;entryY=0;entryDx=0;entryDy=0;exitX=0;exitY=0.5;exitDx=0;exitDy=0;exitPerimeter=0;" parent="1" source="220" target="205" edge="1">
                    <mxGeometry width="50" height="50" relative="1" as="geometry">
                        <mxPoint x="1170" y="140" as="sourcePoint"/>
                        <mxPoint x="1220" y="90" as="targetPoint"/>
                        <Array as="points">
                            <mxPoint x="1450" y="100"/>
                        </Array>
                    </mxGeometry>
                </mxCell>
                <mxCell id="224" value="" style="endArrow=none;html=1;entryX=0.5;entryY=0;entryDx=0;entryDy=0;exitX=0;exitY=0.5;exitDx=0;exitDy=0;exitPerimeter=0;" parent="1" source="225" target="214" edge="1">
                    <mxGeometry width="50" height="50" relative="1" as="geometry">
                        <mxPoint x="1210" y="250" as="sourcePoint"/>
                        <mxPoint x="1391" y="290" as="targetPoint"/>
                        <Array as="points">
                            <mxPoint x="1450" y="220"/>
                        </Array>
                    </mxGeometry>
                </mxCell>
                <mxCell id="225" value="" style="shape=providedRequiredInterface;html=1;verticalLabelPosition=bottom;sketch=0;flipV=1;flipH=1;" parent="1" vertex="1">
                    <mxGeometry x="1200" y="210" width="20" height="20" as="geometry"/>
                </mxCell>
                <mxCell id="226" value="" style="endArrow=none;html=1;entryX=1;entryY=0.5;entryDx=0;entryDy=0;entryPerimeter=0;exitX=0.5;exitY=0;exitDx=0;exitDy=0;" parent="1" source="209" target="225" edge="1">
                    <mxGeometry width="50" height="50" relative="1" as="geometry">
                        <mxPoint x="1000" y="280" as="sourcePoint"/>
                        <mxPoint x="1150" y="200" as="targetPoint"/>
                        <Array as="points">
                            <mxPoint x="970" y="220"/>
                        </Array>
                    </mxGeometry>
                </mxCell>
                <mxCell id="227" value="" style="endArrow=none;html=1;entryX=0.5;entryY=1;entryDx=0;entryDy=0;exitX=0;exitY=0.5;exitDx=0;exitDy=0;exitPerimeter=0;" parent="1" source="228" target="215" edge="1">
                    <mxGeometry width="50" height="50" relative="1" as="geometry">
                        <mxPoint x="1210" y="450" as="sourcePoint"/>
                        <mxPoint x="1391" y="450" as="targetPoint"/>
                        <Array as="points">
                            <mxPoint x="1450" y="420"/>
                        </Array>
                    </mxGeometry>
                </mxCell>
                <mxCell id="228" value="" style="shape=providedRequiredInterface;html=1;verticalLabelPosition=bottom;sketch=0;flipV=1;flipH=1;" parent="1" vertex="1">
                    <mxGeometry x="1200" y="410" width="20" height="20" as="geometry"/>
                </mxCell>
                <mxCell id="229" value="" style="endArrow=none;html=1;entryX=1;entryY=0.5;entryDx=0;entryDy=0;entryPerimeter=0;exitX=0.5;exitY=1;exitDx=0;exitDy=0;" parent="1" source="209" target="228" edge="1">
                    <mxGeometry width="50" height="50" relative="1" as="geometry">
                        <mxPoint x="991" y="490" as="sourcePoint"/>
                        <mxPoint x="1150" y="400" as="targetPoint"/>
                        <Array as="points">
                            <mxPoint x="970" y="420"/>
                        </Array>
                    </mxGeometry>
                </mxCell>
                <mxCell id="230" value="MCP&#10;Database" style="shape=module;align=left;spacingLeft=20;align=center;verticalAlign=top;" parent="1" vertex="1">
                    <mxGeometry x="1590" y="100" width="100" height="50" as="geometry"/>
                </mxCell>
                <mxCell id="231" value="Area&#10;Database" style="shape=module;align=left;spacingLeft=20;align=center;verticalAlign=top;" parent="1" vertex="1">
                    <mxGeometry x="1590" y="180" width="100" height="50" as="geometry"/>
                </mxCell>
                <mxCell id="232" value="" style="endArrow=none;html=1;entryX=1;entryY=0.5;entryDx=0;entryDy=0;exitX=0.098;exitY=0.503;exitDx=0;exitDy=0;exitPerimeter=0;" parent="1" source="230" target="205" edge="1">
                    <mxGeometry width="50" height="50" relative="1" as="geometry">
                        <mxPoint x="1549" y="200" as="sourcePoint"/>
                        <mxPoint x="1599" y="150" as="targetPoint"/>
                        <Array as="points">
                            <mxPoint x="1560" y="125"/>
                        </Array>
                    </mxGeometry>
                </mxCell>
                <mxCell id="233" value="" style="endArrow=none;html=1;exitX=1;exitY=0.5;exitDx=0;exitDy=0;entryX=0.096;entryY=0.5;entryDx=0;entryDy=0;entryPerimeter=0;" parent="1" source="205" target="231" edge="1">
                    <mxGeometry width="50" height="50" relative="1" as="geometry">
                        <mxPoint x="1539" y="190" as="sourcePoint"/>
                        <mxPoint x="1589" y="140" as="targetPoint"/>
                        <Array as="points">
                            <mxPoint x="1560" y="205"/>
                        </Array>
                    </mxGeometry>
                </mxCell>
                <mxCell id="235" value="Request update Task model" style="text;html=1;strokeColor=none;fillColor=none;align=center;verticalAlign=middle;whiteSpace=wrap;rounded=0;" parent="1" vertex="1">
                    <mxGeometry x="1060" y="110" width="60" height="40" as="geometry"/>
                </mxCell>
                <mxCell id="236" value="Update Task models" style="text;html=1;strokeColor=none;fillColor=none;align=center;verticalAlign=middle;whiteSpace=wrap;rounded=0;" parent="1" vertex="1">
                    <mxGeometry x="1300" y="92" width="60" height="80" as="geometry"/>
                </mxCell>
                <mxCell id="237" value="Update Employees &amp;amp; Vehicles models" style="text;html=1;strokeColor=none;fillColor=none;align=center;verticalAlign=middle;whiteSpace=wrap;rounded=0;" parent="1" vertex="1">
                    <mxGeometry x="1300" y="238" width="60" height="80" as="geometry"/>
                </mxCell>
                <mxCell id="238" value="Update View" style="text;html=1;strokeColor=none;fillColor=none;align=center;verticalAlign=middle;whiteSpace=wrap;rounded=0;" parent="1" vertex="1">
                    <mxGeometry x="1170" y="110" width="80" height="20" as="geometry"/>
                </mxCell>
                <mxCell id="239" value="Update View" style="text;html=1;strokeColor=none;fillColor=none;align=center;verticalAlign=middle;whiteSpace=wrap;rounded=0;" parent="1" vertex="1">
                    <mxGeometry x="1170" y="230" width="80" height="20" as="geometry"/>
                </mxCell>
                <mxCell id="240" value="Update View" style="text;html=1;strokeColor=none;fillColor=none;align=center;verticalAlign=middle;whiteSpace=wrap;rounded=0;" parent="1" vertex="1">
                    <mxGeometry x="1170" y="390" width="80" height="20" as="geometry"/>
                </mxCell>
            </root>
        </mxGraphModel>
    </diagram>
</mxfile>